<?xml version="1.0" encoding="UTF-8" standalone="no"?>
<svg width="365px" height="114px" viewBox="0 0 365 114" version="1.1" xmlns="http://www.w3.org/2000/svg" xmlns:xlink="http://www.w3.org/1999/xlink" xmlns:sketch="http://www.bohemiancoding.com/sketch/ns">
    <!-- Generator: Sketch 3.3.2 (12043) - http://www.bohemiancoding.com/sketch -->
    <title>Artboard 1</title>
    <desc>Created with Sketch.</desc>
    <defs>
        <circle id="path-1" cx="22.5" cy="64.4732729" r="7.5"></circle>
    </defs>
    <g id="Page-1" stroke="none" stroke-width="1" fill="none" fill-rule="evenodd" sketch:type="MSPage">
        <g id="Artboard-1" sketch:type="MSArtboardGroup">
            <g id="logo" sketch:type="MSLayerGroup" transform="translate(181.549525, 62.555003) rotate(6.000000) translate(-181.549525, -62.555003) translate(4.049525, -7.944997)">
                <g id="Manly" transform="translate(0.000000, 24.000000)">
                    <text sketch:type="MSTextLayer" transform="translate(83.000000, 75.973273) rotate(-18.000000) translate(-83.000000, -75.973273) " font-family="Nickainley" font-size="48" font-weight="normal" fill="#000000">
                        <tspan x="24" y="83.9732729">Manly</tspan>
                    </text>
                    <path d="M32.4621233,16.1517271 C35.6730769,17.2298575 37.6183699,18.2142227 38.2980608,19.1048521 C38.7668132,19.2689154 39.7980529,20.2532806 41.3918108,22.0579771 C42.8918183,24.5658022 43.6418108,26.6517188 43.6418108,28.3157896 L43.7824358,29.0892271 C43.7824358,32.2533054 43.1261924,34.5501575 41.8136858,35.9798521 C40.946494,37.2923587 39.5871326,38.5814083 37.7355608,39.8470396 C34.969922,41.1595462 33.3527507,41.8626641 32.8839983,41.9564146 C31.3371156,42.2845413 29.9308797,42.4486021 28.6652483,42.4486021 C26.3917995,42.1673507 24.6574418,41.7220427 23.4621233,41.1126646 C22.5246187,40.5501618 21.493379,39.776732 20.3683733,38.7923521 C19.102742,37.2220318 18.4699358,35.7689213 18.4699358,34.4329771 L18.3996233,33.5892271 C18.3996233,31.7142177 19.1027413,30.0736091 20.5089983,28.6673521 C21.7043168,27.7767227 22.7121192,27.3314146 23.5324358,27.3314146 C23.5324358,27.2376641 23.7668085,27.1907896 24.2355608,27.1907896 L25.1496233,27.1907896 C25.7355638,27.1907896 26.462119,27.5189113 27.3293108,28.1751646 C28.1730651,29.3704831 28.5949358,30.0970383 28.5949358,30.3548521 C28.5714982,30.4486026 27.7511939,30.7064125 26.1339983,31.1282896 C24.6808661,32.1829824 23.9543108,33.120473 23.9543108,33.9407896 L23.8839983,34.4329771 C23.8839983,37.2454912 24.7980517,38.9798488 26.6261858,39.6361021 C28.0324429,40.2454802 29.4621161,40.5501646 30.9152483,40.5501646 C33.3996358,40.2454756 34.8761835,39.9173539 35.3449358,39.5657896 C37.5246342,38.6048473 38.7902466,37.8314175 39.1418108,37.2454771 C40.5949431,36.0501586 41.6730573,34.4329873 42.3761858,32.3939146 C42.5168115,31.9485999 42.6808724,30.7298621 42.8683733,28.7376646 C42.6574348,27.0501562 42.3761876,25.9954792 42.0246233,25.5736021 C40.3371149,22.4095238 38.0637001,20.1829836 35.2043108,18.8939146 C33.1886758,17.7923466 31.6652535,17.206415 30.6339983,17.1361021 C30.1183708,16.9017259 28.6183858,16.6673533 26.1339983,16.4329771 C20.7902216,16.4329771 16.2199548,18.4017074 12.4230608,22.3392271 C11.6496195,23.1595437 10.8761897,24.2610952 10.1027483,25.6439146 C9.4933703,26.8861083 9.00118772,28.5735915 8.62618584,30.7064146 C8.62618584,32.6048616 8.95430756,34.3626565 9.61056084,35.9798521 C10.4074398,38.0658 11.5793031,40.1048422 13.1261858,42.0970396 C13.6183758,42.7767305 14.8839881,43.9954683 16.9230608,45.7532896 C20.954331,48.237677 24.0714873,49.4798521 26.2746233,49.4798521 C26.6496252,49.5736026 27.8214885,49.6907889 29.7902483,49.8314146 C31.9465091,49.8314146 34.3839847,49.5032929 37.1027483,48.8470396 C41.0168304,47.417345 44.4855457,45.8470482 47.5089983,44.1361021 C48.9621306,43.409536 52.8527167,41.0658094 59.1808733,37.1048521 C61.9230746,35.2532804 66.4464668,33.0501774 72.7511858,30.4954771 C75.7746385,29.6751605 78.2121141,29.2532897 80.0636858,29.2298521 L83.2980608,29.0189146 C86.6730777,29.3704789 89.2511769,29.8157869 91.0324358,30.3548521 C91.3371249,30.3548521 92.7667981,31.0345328 95.3214983,32.3939146 C97.2199453,33.7298588 98.4386831,34.8314103 98.9777483,35.6986021 C101.040259,37.8548629 102.516806,40.9720192 103.407436,45.0501646 C103.641812,45.8939188 103.758998,46.4564132 103.758998,46.7376646 L103.758998,49.2689146 C103.430872,52.2220544 103.149625,53.6986021 102.915248,53.6986021 C102.540246,54.8470454 101.90744,56.0892204 101.016811,57.4251646 C100.524621,58.2220436 99.4465067,59.3470324 97.7824358,60.8001646 C96.4699293,61.8079822 95.0636933,62.6048492 93.5636858,63.1907896 C93.5636858,63.3314153 92.7199281,62.4173577 94.2668108,61.2923521 C94.8527513,61.1517264 96.0246146,60.3548594 97.7824358,58.9017271 C99.2121305,57.3548444 100.149621,56.0189202 100.594936,54.8939146 C101.532441,53.0189052 102.001186,51.3548594 102.001186,49.9017271 C102.048061,49.9017271 102.094936,49.6204799 102.141811,49.0579771 C102.141811,46.9017163 101.860564,44.932986 101.298061,43.1517271 C100.571495,41.2298425 99.5871296,39.331424 98.3449358,37.4564146 C97.0324293,35.9564071 95.8840033,34.8782929 94.8996233,34.2220396 C94.4777462,33.8470377 93.2824457,33.1907943 91.3136858,32.2532896 C89.5793022,31.5032859 87.5636973,30.9642288 85.2668108,30.6361021 L83.7199358,30.4954771 L81.8214983,30.4954771 C78.048042,30.4954771 74.4387031,31.3626559 70.9933733,33.0970396 C66.5402261,35.0423618 62.5558909,37.1048412 59.0402483,39.2845396 C53.3214697,42.7064317 48.9855756,45.1204701 46.0324358,46.5267271 C44.7199293,47.4407942 41.5793357,48.7064065 36.6105608,50.3236021 C34.1027358,50.8392297 31.9699446,51.0970396 30.2121233,51.0970396 C28.0324249,51.0970396 25.1965158,50.7923552 21.7043108,50.1829771 C19.2902363,49.6439119 16.5012017,48.4954859 13.3371233,46.7376646 C10.0792946,44.2298396 7.96994065,41.7689267 7.00899834,39.3548521 C6.32930744,38.3001593 5.79025034,36.8001743 5.39181084,34.8548521 C5.25118514,34.8548521 5.13399881,33.4720534 5.04024834,30.7064146 C5.04024834,29.2532824 5.29805827,27.8236091 5.81368584,26.4173521 C6.82150338,24.2376537 7.71211948,22.8314178 8.48556084,22.1986021 C9.18868936,21.1907846 10.477739,20.0189213 12.3527483,18.6829771 C14.087132,17.5579715 15.587117,16.807979 16.8527483,16.4329771 C19.5246367,15.4954724 22.5949185,15.0267271 26.0636858,15.0267271 C29.2512018,15.3548538 31.383993,15.72985 32.4621233,16.1517271 Z" id="y" stroke="#000000" stroke-width="0.5" fill="#000000" sketch:type="MSShapeGroup" transform="translate(54.399623, 39.115920) scale(-1, 1) rotate(18.000000) translate(-54.399623, -39.115920) "></path>
                    <mask id="mask-2" sketch:name="Mask" fill="white">
                        <use xlink:href="#path-1"></use>
                    </mask>
                    <use id="Mask" fill="#FFFFFF" sketch:type="MSShapeGroup" xlink:href="#path-1"></use>
                </g>
                <g id="Vegetarian" transform="translate(138.000000, 1.000000)" fill="#000000">
                    <text sketch:type="MSTextLayer" transform="translate(95.000000, 51.000000) rotate(-18.000000) translate(-95.000000, -51.000000) " font-family="Nickainley" font-size="48" font-weight="normal">
                        <tspan x="3" y="59">Vegetarian</tspan>
                    </text>
                    <path d="M138.29982,30.6712287 C141.510774,31.7493591 143.456067,32.7337242 144.135758,33.6243537 C144.60451,33.788417 145.63575,34.7727822 147.229508,36.5774787 C148.729515,39.0853037 149.479508,41.1712204 149.479508,42.8352912 L149.620133,43.6087287 C149.620133,46.772807 148.963889,49.069659 147.651383,50.4993537 C146.784191,51.8118602 145.42483,53.1009099 143.573258,54.3665412 C140.807619,55.6790477 139.190448,56.3821657 138.721695,56.4759162 C137.174813,56.8040428 135.768577,56.9681037 134.502945,56.9681037 C132.229496,56.6868523 130.495139,56.2415442 129.29982,55.6321662 C128.362316,55.0696634 127.331076,54.2962336 126.20607,53.3118537 C124.940439,51.7415333 124.307633,50.2884229 124.307633,48.9524787 L124.23732,48.1087287 C124.23732,46.2337193 124.940438,44.5931107 126.346695,43.1868537 C127.542014,42.2962242 128.549816,41.8509162 129.370133,41.8509162 C129.370133,41.7571657 129.604505,41.7102912 130.073258,41.7102912 L130.98732,41.7102912 C131.573261,41.7102912 132.299816,42.0384129 133.167008,42.6946662 C134.010762,43.8899847 134.432633,44.6165399 134.432633,44.8743537 C134.409195,44.9681042 133.588891,45.2259141 131.971695,45.6477912 C130.518563,46.702484 129.792008,47.6399746 129.792008,48.4602912 L129.721695,48.9524787 C129.721695,51.7649927 130.635749,53.4993504 132.463883,54.1556037 C133.87014,54.7649817 135.299813,55.0696662 136.752945,55.0696662 C139.237333,54.7649772 140.71388,54.4368554 141.182633,54.0852912 C143.362331,53.1243489 144.627943,52.3509191 144.979508,51.7649787 C146.43264,50.5696602 147.510754,48.9524889 148.213883,46.9134162 C148.354508,46.4681015 148.518569,45.2493636 148.70607,43.2571662 C148.495132,41.5696577 148.213885,40.5149808 147.86232,40.0931037 C146.174812,36.9290254 143.901397,34.7024851 141.042008,33.4134162 C139.026373,32.3118482 137.50295,31.7259165 136.471695,31.6556037 C135.956068,31.4212275 134.456083,31.1868549 131.971695,30.9524787 C126.627919,30.9524787 122.057652,32.921209 118.260758,36.8587287 C117.487316,37.6790453 116.713887,38.7805968 115.940445,40.1634162 C115.331067,41.4056099 114.838885,43.093093 114.463883,45.2259162 C114.463883,47.1243632 114.792004,48.8821581 115.448258,50.4993537 C116.245137,52.5853016 117.417,54.6243437 118.963883,56.6165412 C119.456073,57.2962321 120.721685,58.5149699 122.760758,60.2727912 C126.792028,62.7571786 129.909184,63.9993537 132.11232,63.9993537 C132.487322,64.0931042 133.659185,64.2102905 135.627945,64.3509162 C137.784206,64.3509162 140.221682,64.0227945 142.940445,63.3665412 C146.854527,61.9368465 150.323243,60.3665497 153.346695,58.6556037 C154.799828,57.9290376 158.690414,55.585311 165.01857,51.6243537 C167.760771,49.7727819 172.284164,47.569679 178.588883,45.0149787 C181.612335,44.1946621 184.049811,43.7727913 185.901383,43.7493537 L189.135758,43.5384162 C192.510775,43.8899804 195.088874,44.3352885 196.870133,44.8743537 C197.174822,44.8743537 198.604495,45.5540344 201.159195,46.9134162 C203.057642,48.2493604 204.27638,49.3509119 204.815445,50.2181037 C206.877956,52.3743645 208.354503,55.4915208 209.245133,59.5696662 C209.479509,60.4134204 209.596695,60.9759148 209.596695,61.2571662 L209.596695,63.7884162 C209.268569,66.741556 208.987321,68.2181037 208.752945,68.2181037 C208.377943,69.3665469 207.745137,70.608722 206.854508,71.9446662 C206.362318,72.7415452 205.284204,73.8665339 203.620133,75.3196662 C202.307626,76.3274837 196.668862,79.0251686 195.168854,79.6111091 C195.168854,79.7517348 193.621971,78.8201143 195.168854,77.6951087 C195.754794,77.554483 201.862311,74.874361 203.620133,73.4212287 C205.049827,71.874346 205.987318,70.5384218 206.432633,69.4134162 C207.370137,67.5384068 207.838883,65.874361 207.838883,64.4212287 C207.885758,64.4212287 207.932633,64.1399815 207.979508,63.5774787 C207.979508,61.4212179 207.698261,59.4524876 207.135758,57.6712287 C206.409192,55.7493441 205.424826,53.8509256 204.182633,51.9759162 C202.870126,50.4759087 201.7217,49.3977945 200.73732,48.7415412 C200.315443,48.3665393 199.120143,47.7102959 197.151383,46.7727912 C195.416999,46.0227874 193.401394,45.4837303 191.104508,45.1556037 L189.557633,45.0149787 L187.659195,45.0149787 C183.885739,45.0149787 180.2764,45.8821575 176.83107,47.6165412 C172.377923,49.5618634 168.393588,51.6243428 164.877945,53.8040412 C159.159167,57.2259333 154.823273,59.6399717 151.870133,61.0462287 C150.557626,61.9602958 147.417033,63.2259081 142.448258,64.8431037 C139.940433,65.3587313 137.807642,65.6165412 136.04982,65.6165412 C133.870122,65.6165412 131.034213,65.3118567 127.542008,64.7024787 C125.127933,64.1634135 122.338899,63.0149875 119.17482,61.2571662 C115.916991,58.7493411 113.807638,56.2884283 112.846695,53.8743537 C112.167004,52.8196609 111.627947,51.3196759 111.229508,49.3743537 C111.088882,49.3743537 110.971696,47.991555 110.877945,45.2259162 C110.877945,43.7727839 111.135755,42.3431107 111.651383,40.9368537 C112.6592,38.7571553 113.549816,37.3509194 114.323258,36.7181037 C115.026386,35.7102861 116.315436,34.5384229 118.190445,33.2024787 C119.924829,32.0774731 121.424814,31.3274806 122.690445,30.9524787 C125.362334,30.014974 128.432615,29.5462287 131.901383,29.5462287 C135.088899,29.8743553 137.22169,30.2493516 138.29982,30.6712287 Z" id="y" stroke="#000000" stroke-width="0.5" sketch:type="MSShapeGroup" transform="translate(160.237320, 54.585714) scale(-1, 1) rotate(-157.000000) translate(-160.237320, -54.585714) "></path>
                </g>
            </g>
        </g>
    </g>
</svg>