<?xml version="1.0" standalone="no"?><!DOCTYPE svg PUBLIC "-//W3C//DTD SVG 1.1//EN" "http://www.w3.org/Graphics/SVG/1.1/DTD/svg11.dtd"><svg width="100%" height="100%" viewBox="0 0 337 96" version="1.1" xmlns="http://www.w3.org/2000/svg" xmlns:xlink="http://www.w3.org/1999/xlink" xml:space="preserve" style="fill-rule:evenodd;clip-rule:evenodd;stroke-miterlimit:1.41421;"><g id="logo"><g id="Manly"><g id="anly-+-M"><g id="anly"><path d="M85.6424,67.0013c-0.566361,-0.124978 -1.07987,0.229535 -1.20485,0.795895l-0.0170118,0.150833c-0.810883,3.80371 -1.98672,9.35346 -4.89769,9.9722c-0.563413,0.119757 -0.93199,0.00181112 -1.17967,-0.239976c-0.314594,-0.32571 -0.528253,-0.869163 -0.64801,-1.43258l-0.0199595,-0.0939022c-0.129737,-0.610364 -0.121568,-1.4954 -0.0594165,-2.58821c0.0152007,-1.08282 0.131336,-2.38339 0.321413,-3.79782c0.143126,-1.40445 0.44117,-3.2344 0.682283,-5.10133c0.400115,-2.73495 0.783217,-5.31907 1.01027,-6.79043c0.0880067,-0.50943 -0.276486,-1.0699 -0.832867,-1.14792c-0.556381,-0.078027 -1.05992,0.323437 -1.14792,0.832867c-0.105019,0.660263 -0.237029,1.42441 -0.349079,2.28245c-0.267642,-0.33569 -0.515325,-0.577477 -0.809959,-0.809285c-1.04471,-0.759386 -2.30128,-1.13024 -3.58892,-0.954684c-0.140853,0.0299393 -0.281707,0.0598786 -0.42256,0.0898179c-2.66623,0.615797 -4.40388,3.29155 -5.53231,6.52481c-1.47228,4.38595 -1.77306,9.89691 -1.26115,12.5362c0.272401,1.51241 0.78659,2.77715 1.6435,3.57645c0.819939,0.856236 1.87872,1.22005 3.25028,0.977592c2.40449,-0.462017 4.02714,-2.52445 5.13447,-5.16437l0.00997976,0.0469511c0.199595,0.939022 0.577015,1.79117 1.2062,2.44259c0.733069,0.678411 1.69795,1.06219 2.96562,0.792735l0.0469511,-0.00997976c4.2256,-0.898179 5.53345,-7.21207 6.47929,-11.5352l0.0170118,-0.150833c0.124978,-0.566361 -0.229535,-1.07987 -0.795895,-1.20485ZM70.2066,79.8023c-0.620344,0.0827858 -1.0928,-0.0621518 -1.46433,-0.424833c-0.505346,-0.530526 -0.835814,-1.39266 -1.07533,-2.51948c-0.462017,-2.40449 -0.165322,-7.47293 1.18901,-11.4903c0.909544,-2.64695 2.22055,-4.79036 4.04167,-5.22652c0.0939022,-0.0199595 0.187804,-0.039919 0.291686,-0.0129275c0.714246,-0.102745 1.44142,0.0861956 2.07764,0.539831c0.636219,0.453636 1.10754,1.28583 1.38403,2.35572c0.0199595,0.0939022 0.039919,0.187804 0.0229072,0.338637c-0.168981,0.821076 -0.298044,1.82996 -0.511029,2.90575c-0.860108,5.1882 -2.13326,12.8197 -5.95625,13.5341Z" style="fill:#fff;fill-rule:nonzero;"/><path d="M104.376,63.0193c-0.566361,-0.124978 -1.07987,0.229535 -1.20485,0.795895l-0.0170118,0.150833c-0.810883,3.80371 -1.98672,9.35346 -4.89769,9.9722l-0.0469511,0.00997976c-0.516462,0.109777 -0.885039,-0.00816864 -1.13272,-0.249956c-0.314594,-0.32571 -0.528253,-0.869163 -0.64801,-1.43258l-0.0199595,-0.0939022c-0.169656,-0.798168 -0.181447,-1.77711 -0.109315,-2.82296c0.0621518,-1.0928 0.245197,-2.30945 0.391271,-3.46916c0.0440034,-0.254715 0.0680472,-0.603332 0.139042,-0.961929c0.305076,-2.02774 0.786165,-5.07434 0.297157,-7.37494c-0.528927,-2.48841 -1.97102,-4.19385 -5.3515,-3.4753c-1.54939,0.329332 -2.81525,1.53078 -3.87744,3.22872c0.0709949,-0.358597 0.105019,-0.660263 0.176013,-1.01886c0.078027,-0.556381 -0.323437,-1.05992 -0.879818,-1.13794c-0.556381,-0.078027 -1.05992,0.323437 -1.13794,0.879818c-0.536209,3.94162 -1.08943,8.03407 -1.5746,11.5232c0.00997976,0.0469511 -0.0269916,0.103882 -0.0170118,0.150833c0.00997976,0.0469511 -0.0369713,0.0569308 -0.0269916,0.103882c0.00997976,0.0469511 0.0199595,0.0939022 0.0199595,0.0939022c-0.658239,4.75271 -1.16451,8.83519 -1.32056,9.94795c-0.078027,0.556381 0.323437,1.05992 0.879818,1.13794c0.546401,0.0310759 1.05992,-0.323437 1.12796,-0.926769c0.156054,-1.11276 0.699295,-5.25216 1.31058,-9.9949c0.410094,-2.688 1.3108,-6.06916 2.62589,-8.65509c0.901376,-1.76191 1.93952,-3.11124 3.1133,-3.36073c1.83109,-0.389211 2.67099,0.560927 2.9604,1.92251c0.41915,1.97195 -0.0179359,4.76383 -0.306,6.64074c-0.0709949,0.358597 -0.105019,0.660263 -0.139042,0.961929c-0.173066,1.26359 -0.356111,2.48024 -0.398303,3.66694c-0.0891433,1.19668 -0.0943642,2.32646 0.115211,3.31243l0.0299393,0.140853c0.199595,0.939022 0.577015,1.79117 1.2062,2.44259c0.733069,0.678411 1.69795,1.06219 2.96562,0.792735l0.0469511,-0.00997976c4.2256,-0.898179 5.53345,-7.21207 6.43234,-11.5252l0.0639629,-0.160813c0.124978,-0.566361 -0.229535,-1.07987 -0.795895,-1.20485Z" style="fill:#fff;fill-rule:nonzero;"/><path d="M114.236,60.9236c-0.566361,-0.124978 -1.12683,0.239514 -1.26178,0.758924c-0.499912,2.26544 -0.98576,4.13532 -1.5984,5.63956c-0.575666,1.44731 -1.17424,2.55599 -1.93657,3.35597c-0.362681,0.371524 -0.745322,0.649147 -1.13794,0.879818c-0.439572,0.240651 -0.889123,0.434351 -1.31168,0.524168l-0.0469511,0.00997976c-0.375609,0.0798381 -0.781157,0.0188229 -1.07579,-0.212985c-0.341585,-0.221828 -0.639167,-0.698371 -0.798843,-1.44959l-0.0199595,-0.0939022c-0.119757,-0.563413 -0.121568,-1.4954 -0.0494367,-2.54125c0.052172,-1.13975 0.168307,-2.44032 0.311433,-3.84477c0.513302,-4.28026 1.0765,-8.32576 1.59275,-12.3613l0.394219,-3.22442c0.0709949,-0.358597 0.0680472,-0.603332 0.102071,-0.904998c0.102071,-0.904998 0.302128,-2.27247 0.465214,-3.58302c0.078027,-0.556381 -0.323437,-1.05992 -0.879818,-1.13794c-0.546401,-0.0310759 -1.05992,0.323437 -1.13794,0.879818c-0.207089,1.56526 -0.343184,2.77193 -0.455234,3.62997l-0.112051,0.858047l-0.394219,3.22442c-0.533261,4.18635 -1.10349,8.42964 -1.58277,12.4082c-0.143126,1.40445 -0.296233,2.76195 -0.338425,3.94865c-0.0891433,1.19668 -0.0573929,2.26953 0.102283,3.02074l0.0299393,0.140853c0.269454,1.26768 0.854637,2.17381 1.60472,2.70139c0.760061,0.574529 1.72199,0.713572 2.66101,0.513976l0.0469511,-0.00997976c0.610364,-0.129737 1.29467,-0.373335 1.90209,-0.747808c0.570445,-0.317541 1.12093,-0.728985 1.60451,-1.22435c0.910219,-1.0277 1.66666,-2.31715 2.33328,-4.02916c0.639629,-1.60813 1.19942,-3.59186 1.7363,-5.91424c0.124978,-0.566361 -0.229535,-1.07987 -0.748944,-1.21483Z" style="fill:#fff;fill-rule:nonzero;"/><path d="M131.832,57.1342c-0.51941,-0.134958 -1.07987,0.229535 -1.1579,0.785915c-0.69997,3.63292 -1.77736,6.41369 -3.13532,8.56708c-1.31101,2.14341 -2.84566,3.69642 -4.60099,4.90376c-0.251767,0.200732 -0.560465,0.364492 -0.859184,0.575204c0.248145,-2.06471 0.50627,-4.08247 0.764394,-6.10023c0.380155,-2.82886 0.699295,-5.25216 1.00142,-7.52464c0.46113,-3.1405 1.1323,-7.60153 1.52833,-9.89396l-0.00997976,-0.0469511l0.0369713,-0.0569308c0.078027,-0.556381 -0.323437,-1.05992 -0.879818,-1.13794c-0.566361,-0.124978 -1.0699,0.276486 -1.14792,0.832867l0.00997976,0.0469511l-0.0369713,0.0569308c-0.339099,2.32941 -1.05722,6.80041 -1.4714,9.93094c-0.078027,0.556381 -0.193025,1.16969 -0.271052,1.72607c0.00997976,0.0469511 0.00997976,0.0469511 -0.0269916,0.103882l-0.0170118,0.150833c-0.810883,3.80371 -1.93977,9.34348 -4.85074,9.96222l-0.0469511,0.00997976c-0.516462,0.109777 -0.885039,-0.00816864 -1.13272,-0.249956c-0.361545,-0.31573 -0.528253,-0.869163 -0.64801,-1.43258l-0.0469511,0.00997976l-0.0199595,-0.0939022c-0.0827858,-0.620344 -0.121568,-1.4954 -0.0594165,-2.58821c0.0621518,-1.0928 0.178287,-2.39337 0.321413,-3.79782c0.085059,-0.754165 0.312108,-2.22552 0.563201,-4.0455c0.268105,-1.97081 0.658239,-4.75271 1.06539,-7.68545c0.078027,-0.556381 -0.276486,-1.0699 -0.832867,-1.14792c-0.556381,-0.078027 -1.0699,0.276486 -1.14792,0.832867c-0.383103,2.58412 -0.783217,5.31907 -1.11234,7.69543c-0.278084,1.92386 -0.448202,3.43219 -0.543241,4.1394c-0.143126,1.40445 -0.296233,2.76195 -0.338425,3.94865c-0.0791636,1.24364 -0.0104418,2.25955 0.102283,3.02074l0.0299393,0.140853c0.199595,0.939022 0.577015,1.79117 1.2062,2.44259c0.733069,0.678411 1.69795,1.06219 2.96562,0.792735l0.0939022,-0.0199595c1.31463,-0.279433 2.36865,-1.09234 3.20198,-2.25092c-0.146074,1.15971 -0.302128,2.27247 -0.448202,3.43219c-1.19782,0.598111 -2.37863,1.04539 -3.50251,1.52964c-4.19679,1.72629 -7.44754,3.05519 -7.00186,7.22976c0.039919,0.187804 0.0898179,0.42256 0.139717,0.657315c0.276486,1.0699 0.881629,2.06993 1.81248,2.75538c0.920873,0.638492 2.17744,1.00934 3.70981,0.830843c0.338637,-0.0229072 0.667295,-0.0927656 1.0429,-0.172604c2.23369,-0.572931 3.49661,-2.01911 4.26417,-3.94886c0.713572,-1.72199 0.961716,-3.7867 1.21984,-5.80446l0.214121,-1.76305c0.795221,-0.414391 1.58046,-0.875733 2.29879,-1.421c1.97013,-1.35114 3.75655,-3.10488 5.20546,-5.52297c1.45889,-2.37114 2.59027,-5.35967 3.38119,-9.25728c0.0880067,-0.50943 -0.276486,-1.0699 -0.832867,-1.14792ZM119.558,76.0353c-0.241113,1.86693 -0.472246,3.78081 -1.08488,5.28505c-0.511703,1.2865 -1.36499,2.35118 -2.85745,2.71748c-0.281707,0.0598786 -0.563413,0.119757 -0.808148,0.122705c-1.00593,0.115673 -1.73311,-0.0732681 -2.31239,-0.489932c-0.522357,-0.379693 -0.839899,-0.950138 -1.01659,-1.55052c-0.0299393,-0.140853 -0.0598786,-0.281707 -0.0898179,-0.42256c-0.26718,-2.64219 2.34621,-3.73748 5.7378,-5.09632c0.8052,-0.36744 1.62038,-0.687929 2.47253,-1.06535l-0.0410556,0.49945Z" style="fill:#fff;fill-rule:nonzero;"/></g><path id="M" d="M58.0957,50.568c-0.741143,-0.163425 -1.61546,-0.216323 -2.56519,-0.0682389c-1.95722,0.205712 -3.77137,1.31341 -5.47758,2.98894c-1.00262,1.0224 -1.98016,2.28349 -2.8949,3.68277c-0.155538,-1.47985 -0.620149,-2.68589 -1.24059,-3.5377c-0.793753,-1.12318 -1.82375,-1.73889 -3.0523,-1.94762c-0.396949,-0.103072 -0.831599,-0.105653 -1.26625,-0.108234c-1.72355,0.132888 -3.19595,0.818551 -4.89212,2.58955c-1.39713,1.40172 -2.95769,3.54458 -4.94301,6.69737l1.81029,-8.49175c0.0653699,-0.296457 -0.0174887,-0.625599 -0.190804,-0.896969c-0.379316,-0.394512 -1.01495,-0.472497 -1.4572,-0.0881643c-0.618145,0.547614 -1.4172,1.21077 -2.21124,1.92167c-3.48022,3.16512 -7.84995,7.05117 -12.0207,7.77912c-0.472353,0.0979107 -0.949724,0.148084 -1.38437,0.145504c-1.35169,-0.0027249 -5.83883,-0.448131 -4.57774,0.529404c1.20833,0.934816 2.76344,1.49533 4.54978,1.50064c0.577862,-0.0124713 1.15071,-0.0726797 1.77129,-0.137906c4.68583,-0.878616 9.23648,-4.88021 12.8976,-8.16087l-2.52936,11.7528c-0.80422,1.53246 -1.51798,3.00715 -2.15634,4.28085c-0.633341,1.32144 -1.19128,2.4419 -1.59841,3.16039c0,0 -0.123142,0.206 -0.283986,0.512492c-1.32187,2.11777 -5.47099,9.02129 -5.2002,12.5161l0.0150521,0.143211c0.0425755,0.864284 0.399241,1.5025 0.879048,1.93471c0.484824,0.479951 1.13551,0.701148 1.85658,0.673624c3.96218,-0.416441 5.04092,-6.22502 5.72487,-9.82021c0.0880201,-0.54016 0.186075,-0.984845 0.24141,-1.37678l2.4313,-11.3081c0.728815,-1.33148 1.45763,-2.66295 2.23418,-3.99945c2.39245,-3.87129 4.10883,-6.36838 5.59141,-7.8756c1.30668,-1.34395 2.35947,-1.88898 3.55792,-1.96668c0.29144,0.0176329 0.535142,0.0402831 0.778845,0.0629333c0.688388,0.120705 1.30639,0.49013 1.76355,1.16605c0.509911,0.718637 0.858979,1.74376 0.961763,3.18089c0.0676624,1.10297 -0.0405714,2.36922 -0.314666,3.89422c-0.837337,4.4318 -1.56902,8.03201 -2.37611,11.8332c-0.849809,3.85394 -1.70463,7.66015 -2.87871,12.5617c-0.0880201,0.54016 0.210874,1.08792 0.756051,1.22367c0.545177,0.135757 1.08792,-0.210874 1.22367,-0.756051c1.20175,-5.09754 2.09427,-9.00424 2.92143,-12.6145c0.769387,-3.7007 1.49605,-7.34864 2.37109,-11.8809c0.0553352,-0.391931 0.115688,-0.736125 0.171023,-1.12806c1.23902,-2.44692 2.7418,-4.68024 4.30981,-6.29297c1.39713,-1.40172 2.84444,-2.32607 4.32429,-2.48161c0.716056,-0.0752605 1.39441,-0.0500295 1.93959,0.0857277c0.841634,0.201127 1.46967,0.666026 1.92181,1.29421c0.504894,0.670899 0.796189,1.60557 0.911589,2.70352c0.185643,1.76627 -0.0182094,3.95959 -0.593923,6.28853c-0.392219,1.77874 -0.935248,3.95945 -1.51096,6.28839c-1.79753,7.23553 -4.00735,16.0589 -4.35728,20.536c-0.00258075,0.434651 -0.00516151,0.869302 0.0349774,1.2512c0.125434,1.19343 0.58001,2.30399 1.34868,3.18849c0.816403,0.879481 1.93686,1.43742 3.34632,1.5306c0.344194,0.0603525 0.72609,0.0202136 1.10799,-0.0199253c0.525108,-0.055191 0.909585,-0.529981 0.854394,-1.05509c-0.055191,-0.525108 -0.524963,-0.861848 -1.05007,-0.806657c-0.286422,0.0301042 -0.577862,0.0124713 -0.773828,-0.0151962c-0.874319,-0.0528986 -1.58779,-0.412289 -2.0299,-0.944995c-0.537579,-0.522671 -0.808805,-1.26639 -0.8941,-2.07792c-0.0351216,-0.334159 -0.0652258,-0.620582 0.000144143,-0.917039c0.274528,-4.27612 2.44664,-12.999 4.24919,-20.1867c0.575714,-2.32894 1.07602,-4.45689 1.51096,-6.28839c0.598364,-2.57264 0.87762,-4.96695 0.619154,-6.96688c-0.150521,-1.43211 -0.519658,-2.64819 -1.20288,-3.63819c-0.730964,-0.984989 -1.72326,-1.70119 -3.06234,-2.04309ZM25.9246,78.3229c-0.0553352,0.391931 -0.148373,0.884354 -0.236393,1.42451c-0.600945,3.00729 -1.4886,7.87876 -3.87545,8.12963l-0.0477371,0.00501737c-0.143211,0.0150521 -0.243703,-0.0226502 -0.344194,-0.0603525c-0.110526,-0.133176 -0.18335,-0.366844 -0.213454,-0.653267l-0.0100347,-0.0954741c-0.248288,-2.8215 3.69726,-9.36578 4.88596,-11.373c0.165861,-0.258755 0.29402,-0.417018 0.374442,-0.570264c0.0754046,-0.200983 0.203564,-0.359246 0.278968,-0.560229l-0.812106,3.75345Z" style="fill:#fff;"/></g><path id="y" d="M64.5789,4.32045c-2.91663,1.72217 -4.61475,3.08947 -5.09442,4.10195c-0.424398,0.257937 -1.22844,1.4352 -2.41215,3.53182c-0.945823,2.76489 -1.24574,4.96116 -0.89976,6.58887l0.0232547,0.785774c0.657849,3.09494 1.77729,5.20516 3.35837,6.33072c1.12113,1.10353 2.71879,2.08178 4.79304,2.93479c2.97809,0.708816 4.70611,1.06034 5.18411,1.05458c1.5813,-0.000658647 2.99092,-0.132556 4.22889,-0.395695c2.16529,-0.747782 3.76917,-1.54395 4.81167,-2.38853c0.800067,-0.745129 1.64797,-1.71606 2.54372,-2.91283c0.911486,-1.79914 1.22835,-3.35207 0.950587,-4.65882l-0.106649,-0.839931c-0.389836,-1.83404 -1.41869,-3.29261 -3.0866,-4.37576c-1.35437,-0.622646 -2.43273,-0.848689 -3.23513,-0.678136c-0.0194918,-0.0917018 -0.258489,-0.0888232 -0.716998,0.00863585l-0.894088,0.190044c-0.573136,0.121824 -1.21559,0.593835 -1.92739,1.41605c-0.576795,1.34462 -0.838388,2.14301 -0.784786,2.39519c0.0424173,0.0868289 0.898398,0.168454 2.56797,0.244878c1.64066,0.729522 2.54625,1.49547 2.71681,2.29786l0.171107,0.466813c0.584755,2.75105 0.0512687,4.63755 -1.60047,5.65956c-1.24883,0.888439 -2.58391,1.48371 -4.00529,1.78583c-2.49345,0.218502 -4.00595,0.204542 -4.53755,-0.0418802c-2.33186,-0.486759 -3.73062,-0.980152 -4.19632,-1.48019c-1.6699,-0.867075 -3.06068,-2.22475 -4.17239,-4.07308c-0.230139,-0.406346 -0.644004,-1.56434 -1.24161,-3.47402c-0.144524,-1.69449 -0.0887021,-2.78459 0.167467,-3.27035c0.992783,-3.44579 2.75359,-6.09634 5.28249,-7.95174c1.74256,-1.49657 3.11087,-2.38644 4.10497,-2.66962c0.45563,-0.336459 1.87411,-0.877575 4.25548,-1.62336c5.227,-1.11103 10.1067,-0.135537 14.6393,2.92652c0.927093,0.641583 1.91265,1.55826 2.95669,2.75005c0.854328,1.08835 1.6866,2.63663 2.49685,4.64488c0.394709,1.85696 0.439224,3.64456 0.133545,5.36286c-0.345772,2.20605 -1.06809,4.44417 -2.16697,6.71445c-0.340119,0.76717 -1.32468,2.22241 -2.95373,4.36577c-3.42664,3.26825 -6.21742,5.13137 -8.37241,5.58943c-0.347315,0.169669 -1.46921,0.527939 -3.36571,1.07482c-2.10914,0.448312 -4.56157,0.63414 -7.35737,0.55749c-4.1258,-0.584669 -7.8452,-1.39946 -11.1583,-2.44441c-1.57244,-0.408566 -5.86529,-1.89218 -12.8787,-4.45088c-3.06724,-1.24097 -7.94984,-2.45547 -14.6479,-3.64352c-3.12794,-0.17378 -5.59986,-0.0796518 -7.41584,0.282386l-3.20755,0.466136c-3.22817,1.04559 -5.65735,2.01718 -7.2876,2.91481c-0.298031,0.0633484 -1.55515,1.02542 -3.77139,2.88625c-1.5792,1.70146 -2.54228,3.03233 -2.88927,3.99265c-1.56913,2.53796 -2.36532,5.89399 -2.38859,10.0682c-0.0538281,0.874046 -0.0515045,1.44861 0.00697096,1.72372l0.526276,2.47594c0.934949,2.82039 1.51704,4.20619 1.7463,4.15746c0.605582,1.04538 1.48282,2.12884 2.63175,3.25042c0.647115,0.677133 1.93557,1.55339 3.8654,2.62878c1.49336,0.712909 3.03455,1.19999 4.6236,1.46126c0.0292378,0.137553 0.664514,-0.931958 -1.08247,-1.71076c-0.602374,-0.0157288 -1.91431,-0.551538 -3.93584,-1.60744c-1.72007,-1.21583 -2.91483,-2.32765 -3.58431,-3.33548c-1.30685,-1.63912 -2.11133,-3.16934 -2.41345,-4.59072c-0.0458509,0.00974596 -0.150176,-0.25561 -0.312977,-0.796074c-0.448312,-2.10914 -0.582533,-4.09332 -0.402666,-5.95261c0.311107,-2.03095 0.879258,-4.09254 1.70447,-6.18485c0.971956,-1.74011 1.87113,-3.03344 2.69756,-3.88002c0.334691,-0.45452 1.36743,-1.34494 3.09825,-2.67129c1.54055,-1.09421 3.40003,-2.04056 5.5785,-2.83906l1.48383,-0.459165l1.85695,-0.394707c3.691,-0.784546 7.40176,-0.686741 11.1324,0.293418c4.76029,0.976951 9.08637,2.16597 12.9784,3.56709c6.30526,2.15811 11.0483,3.61792 14.2293,4.37945c1.47387,0.621207 4.80897,1.2062 10.0054,1.75499c2.56023,-0.0170463 4.70001,-0.208302 6.41942,-0.573774c2.13207,-0.453185 4.84266,-1.34083 8.13185,-2.66296c2.24924,-1.0292 4.73856,-2.7324 7.46802,-5.10966c2.66523,-3.13036 4.21684,-5.97606 4.65487,-8.53717c0.445555,-1.17296 0.660968,-2.75224 0.646246,-4.7379c0.137553,-0.0292377 -0.0353218,-1.40618 -0.518629,-4.13088c-0.302123,-1.42138 -0.851545,-2.76621 -1.64828,-4.03453c-1.43898,-1.92253 -2.60251,-3.11287 -3.49062,-3.57105c-0.897301,-0.839606 -2.40183,-1.71785 -4.51362,-2.63477c-1.93038,-0.739823 -3.55352,-1.16156 -4.86947,-1.26523c-2.80842,-0.361501 -5.90907,-0.181656 -9.30203,0.539542c-3.04964,0.983678 -5.05786,1.79391 -6.02472,2.43073Z" style="fill:#fff;stroke-width:0.5px;stroke:#fff;"/></g><g id="Vegetarian"><g><path d="M173.929,19.729c-5.98275,1.17353 -7.89371,11.3451 -9.78472,21.6106c-1.803,9.75606 -3.67995,19.626 -8.60981,20.6739c-2.72316,0.578826 -3.73748,-2.34621 -4.08041,-5.80652c-0.395781,-3.93981 0.168557,-8.67256 0.39969,-10.5864l-0.00997976,-0.0469511c0.0580674,-0.650283 0.16717,-1.75307 0.256314,-2.94975c0.280357,-3.29837 0.628762,-7.20007 1.14682,-10.3036c3.4356,-1.61356 5.88931,-3.46007 5.65615,-6.40392c0.00703204,-0.197784 -0.0229072,-0.338637 -0.0997976,-0.469511c-0.00997976,-0.0469511 -0.0199595,-0.0939022 -0.0299393,-0.140853c-0.213659,-0.543453 -0.669106,-0.839224 -1.15154,-1.03111c-0.425507,-0.154917 -0.868027,-0.159002 -1.31055,-0.163086c-0.328658,0.0698583 -0.657315,0.139717 -0.892071,0.189615c-1.04994,0.370388 -1.8692,1.1334 -2.46074,2.04429c-0.54459,0.900914 -0.908408,1.95969 -1.21529,3.05544c-0.0979865,0.462479 -0.185993,0.971909 -0.320951,1.49132c-1.17083,0.494229 -2.52946,1.02838 -3.8881,1.56253c-6.71923,2.55688 -14.1228,5.35736 -13.6746,12.0832c0.0498988,0.234755 0.0628263,0.526442 0.112725,0.761197c0.272401,1.51241 1.00433,2.87808 2.03204,3.7883c1.14156,0.984162 2.5789,1.51288 4.22514,1.40832c0.244735,-0.00294772 0.479491,-0.0528465 0.714246,-0.102745c0.526442,-0.0628263 0.896155,-0.632135 0.833329,-1.15858c-0.119757,-0.563413 -0.642115,-0.943106 -1.20553,-0.823349c-0.140853,0.0299393 -0.281707,0.0598786 -0.479491,0.0528465c-1.10981,0.0886813 -2.01776,-0.258125 -2.74085,-0.889585c-0.723089,-0.63146 -1.21437,-1.55755 -1.38697,-2.60046c-0.039919,-0.187804 -0.032887,-0.385588 -0.072806,-0.573393c-0.373548,-5.22041 6.29873,-7.76731 12.3806,-10.0906c0.956033,-0.350428 1.86512,-0.690877 2.76422,-1.07828c-0.407147,2.93274 -0.677524,6.27806 -0.933838,9.22781c-0.102071,0.904998 -0.157191,1.80002 -0.266293,2.9028c-0.258125,2.01776 -0.802502,6.84442 -0.403774,11.029c0.461555,4.71098 2.07103,8.5891 6.53138,7.64102c6.24449,-1.32731 8.21648,-11.9044 10.1714,-22.3307c1.78599,-9.60523 3.55497,-19.0596 8.16615,-19.9907c0.563413,-0.119757 0.896155,-0.632135 0.776398,-1.19555c-0.0628263,-0.526442 -0.632135,-0.896155 -1.1486,-0.786378ZM154.666,27.4547c0.369713,-0.569308 0.816317,-1.00774 1.40672,-1.23138l0.42256,-0.0898179c0.150833,0.0170118 0.301666,0.0340236 0.405548,0.0610152c0.0546576,1.41148 -1.22119,2.56597 -3.1573,3.61545c0.252904,-0.887986 0.515787,-1.72902 0.922472,-2.35526Z" style="fill:#fff;fill-rule:nonzero;"/><path d="M188.704,43.5291c-0.556381,-0.078027 -1.0699,0.276486 -1.20485,0.795895c-0.790924,3.89761 -2.29382,6.52347 -4.04326,8.22027c-1.74944,1.69681 -3.82935,2.53149 -5.81128,2.90369l-0.0939022,0.0199595c-1.23071,0.212523 -2.39042,0.0664485 -3.24438,-0.488121c-0.890934,-0.497639 -1.54303,-1.4877 -1.81543,-3.00011l-0.0199595,-0.0939022c-0.152644,-0.949001 -0.174415,-1.97489 -0.122243,-3.11465c1.06695,-0.521221 3.04003,-1.62763 5.00018,-3.02572c1.40967,-0.986647 2.77942,-2.1611 3.78059,-3.4535c0.890259,-1.12161 1.42895,-2.51199 1.54509,-3.81256c0.0650995,-0.848067 -0.020634,-1.71315 -0.358135,-2.37749c-0.35746,-0.758249 -0.929716,-1.3727 -1.78073,-1.68253c-0.710162,-0.339774 -1.60518,-0.394894 -2.68505,-0.165359c-0.84512,0.179636 -1.64034,0.594027 -2.34869,1.18624c-0.71833,0.545265 -1.39674,1.27833 -1.95131,2.1323c-1.16312,1.91569 -2.1296,4.52566 -2.69053,7.19666c-0.259936,1.08577 -0.41599,2.19853 -0.488121,3.24438c0.00997976,0.0469511 -0.0369713,0.0569308 -0.0269916,0.103882c-0.0861956,1.44142 -0.078489,2.86288 0.134034,4.09359l0.0299393,0.140853c0.402138,2.12278 1.38879,3.53245 2.74515,4.37281c1.29943,0.803389 2.91164,1.0005 4.62184,0.73513l0.140853,-0.0299393c2.36751,-0.405086 4.75612,-1.40352 6.83128,-3.41493c2.0282,-2.00142 3.71596,-4.91193 4.65182,-9.282c0.0880067,-0.50943 -0.229535,-1.07987 -0.795895,-1.20485ZM172.814,45.1891c0.516924,-2.41628 1.42942,-4.81849 2.4916,-6.51643c0.396705,-0.67319 0.917251,-1.22549 1.41081,-1.6739c0.503534,-0.401464 1.03701,-0.662074 1.55347,-0.771851c0.657315,-0.139717 1.15677,-0.098661 1.53532,0.0662361c0.321626,0.127926 0.512378,0.332742 0.676138,0.64144c0.17374,0.355649 0.226587,0.83514 0.185531,1.33459c-0.092091,0.951949 -0.475868,1.91683 -1.13432,2.7438c-0.890259,1.12161 -2.13912,2.17222 -3.37096,3.07199c-1.26882,0.956708 -2.5306,1.71563 -3.54062,2.27382c0.0610152,-0.405548 0.13201,-0.764145 0.193025,-1.16969Z" style="fill:#fff;fill-rule:nonzero;"/><path d="M208.095,39.4075c-0.51941,-0.134958 -1.07987,0.229535 -1.1579,0.785915c-0.69997,3.63292 -1.77736,6.41369 -3.13532,8.56708c-1.31101,2.14341 -2.84566,3.69642 -4.60099,4.90376c-0.251767,0.200732 -0.560465,0.364492 -0.859184,0.575204c0.248145,-2.06471 0.50627,-4.08247 0.764394,-6.10023c0.380155,-2.82886 0.699295,-5.25216 1.00142,-7.52464c0.46113,-3.1405 1.1323,-7.60153 1.52833,-9.89396l-0.00997976,-0.0469511l0.0369713,-0.0569308c0.078027,-0.556381 -0.323437,-1.05992 -0.879818,-1.13794c-0.566361,-0.124978 -1.0699,0.276486 -1.14792,0.832867l0.00997976,0.0469511l-0.0369713,0.0569308c-0.078027,0.556381 -0.173066,1.26359 -0.305076,2.02774c-0.267642,-0.33569 -0.572256,-0.614448 -0.86689,-0.846256c-1.04471,-0.759386 -2.30128,-1.13024 -3.58892,-0.954684c-0.0939022,0.0199595 -0.234755,0.0498988 -0.42256,0.0898179c-2.61928,0.605818 -4.40388,3.29155 -5.53231,6.52481c-1.42533,4.37597 -1.72611,9.88693 -1.26115,12.5362c0.319352,1.50243 0.833541,2.76717 1.6435,3.57645c0.819939,0.856236 1.92567,1.21007 3.29723,0.967612c1.74717,-0.3223 3.10694,-1.5437 4.13216,-3.18472c-0.190078,1.41443 -0.380155,2.82886 -0.560253,4.29024c-1.19782,0.598111 -2.37863,1.04539 -3.50251,1.52964c-4.19679,1.72629 -7.44754,3.05519 -6.95491,7.21978c-0.00703204,0.197784 0.0428668,0.43254 0.0927656,0.667295c0.276486,1.0699 0.881629,2.06993 1.81248,2.75538c0.920873,0.638492 2.17744,1.00934 3.70981,0.830843c0.338637,-0.0229072 0.667295,-0.0927656 1.0429,-0.172604c2.23369,-0.572931 3.49661,-2.01911 4.26417,-3.94886c0.713572,-1.72199 0.961716,-3.7867 1.21984,-5.80446l0.214121,-1.76305c0.795221,-0.414391 1.58046,-0.875733 2.29879,-1.421c1.97013,-1.35114 3.75655,-3.10488 5.20546,-5.52297c1.45889,-2.37114 2.59027,-5.35967 3.38119,-9.25728c0.0880067,-0.50943 -0.276486,-1.0699 -0.832867,-1.14792ZM195.82,58.3085c-0.241113,1.86693 -0.472246,3.78081 -1.08488,5.28505c-0.511703,1.2865 -1.36499,2.35118 -2.85745,2.71748c-0.281707,0.0598786 -0.563413,0.119757 -0.808148,0.122705c-1.00593,0.115673 -1.73311,-0.0732681 -2.31239,-0.489932c-0.522357,-0.379693 -0.839899,-0.950138 -1.01659,-1.55052c-0.0299393,-0.140853 -0.0598786,-0.281707 -0.0898179,-0.42256c-0.26718,-2.64219 2.34621,-3.73748 5.7378,-5.09632c0.8052,-0.36744 1.62038,-0.687929 2.47253,-1.06535l-0.0410556,0.49945ZM192.199,52.3552c-0.667295,0.0927656 -1.13975,-0.052172 -1.51128,-0.414853c-0.505346,-0.530526 -0.835814,-1.39266 -1.02838,-2.52946c-0.462017,-2.40449 -0.165322,-7.47293 1.18901,-11.4903c0.862593,-2.63697 2.22055,-4.79036 4.04167,-5.22652c0.0469511,-0.00997976 0.140853,-0.0299393 0.244735,-0.00294772c0.761197,-0.112725 1.48837,0.0762158 2.07764,0.539831c0.636219,0.453636 1.15449,1.27585 1.38403,2.35572c0.0199595,0.0939022 0.039919,0.187804 0.0698583,0.328658c-0.168981,0.821076 -0.344995,1.83994 -0.511029,2.90575c-0.860108,5.1882 -2.18021,12.8296 -5.95625,13.5341Z" style="fill:#fff;fill-rule:nonzero;"/><path d="M225.232,35.7648c-0.556381,-0.078027 -1.0699,0.276486 -1.20485,0.795895c-0.790924,3.89761 -2.29382,6.52347 -4.04326,8.22027c-1.74944,1.69681 -3.82935,2.53149 -5.81128,2.90369l-0.0939022,0.0199595c-1.23071,0.212523 -2.39042,0.0664485 -3.24438,-0.488121c-0.890934,-0.497639 -1.54303,-1.4877 -1.81543,-3.00011l-0.0199595,-0.0939022c-0.152644,-0.949001 -0.174415,-1.97489 -0.122243,-3.11465c1.06695,-0.521221 3.04003,-1.62763 5.00018,-3.02572c1.40967,-0.986647 2.77942,-2.1611 3.78059,-3.4535c0.890259,-1.12161 1.42895,-2.51199 1.54509,-3.81256c0.0650995,-0.848067 -0.020634,-1.71315 -0.358135,-2.37749c-0.35746,-0.758249 -0.929716,-1.3727 -1.78073,-1.68253c-0.710162,-0.339774 -1.60518,-0.394894 -2.68505,-0.165359c-0.84512,0.179636 -1.64034,0.594027 -2.34869,1.18624c-0.71833,0.545265 -1.39674,1.27833 -1.95131,2.1323c-1.16312,1.91569 -2.1296,4.52566 -2.69053,7.19666c-0.259936,1.08577 -0.41599,2.19853 -0.488121,3.24438c0.00997976,0.0469511 -0.0369713,0.0569308 -0.0269916,0.103882c-0.0861956,1.44142 -0.078489,2.86288 0.134034,4.09359l0.0299393,0.140853c0.402138,2.12278 1.38879,3.53245 2.74515,4.37281c1.29943,0.803389 2.91164,1.0005 4.62184,0.73513l0.140853,-0.0299393c2.36751,-0.405086 4.75612,-1.40352 6.83128,-3.41493c2.0282,-2.00142 3.71596,-4.91193 4.65182,-9.282c0.0880067,-0.50943 -0.229535,-1.07987 -0.795895,-1.20485ZM209.342,37.4249c0.516924,-2.41628 1.42942,-4.81849 2.4916,-6.51643c0.396705,-0.67319 0.917251,-1.22549 1.41081,-1.6739c0.503534,-0.401464 1.03701,-0.662074 1.55347,-0.771851c0.657315,-0.139717 1.15677,-0.098661 1.53532,0.0662361c0.321626,0.127926 0.512378,0.332742 0.676138,0.64144c0.17374,0.355649 0.226587,0.83514 0.185531,1.33459c-0.092091,0.951949 -0.475868,1.91683 -1.13432,2.7438c-0.890259,1.12161 -2.13912,2.17222 -3.37096,3.07199c-1.26882,0.956708 -2.5306,1.71563 -3.54062,2.27382c0.0610152,-0.405548 0.13201,-0.764145 0.193025,-1.16969Z" style="fill:#fff;fill-rule:nonzero;"/><path d="M235.045,33.6791c-0.566361,-0.124978 -1.12683,0.239514 -1.26178,0.758924c-0.499912,2.26544 -0.98576,4.13532 -1.5984,5.63956c-0.575666,1.44731 -1.17424,2.55599 -1.93657,3.35597c-0.362681,0.371524 -0.745322,0.649147 -1.13794,0.879818c-0.439572,0.240651 -0.889123,0.434351 -1.31168,0.524168l-0.0469511,0.00997976c-0.375609,0.0798381 -0.781157,0.0188229 -1.07579,-0.212985c-0.341585,-0.221828 -0.639167,-0.698371 -0.798843,-1.44959l-0.0199595,-0.0939022c-0.129737,-0.610364 -0.121568,-1.4954 -0.106368,-2.57823c0.0621518,-1.0928 0.178287,-2.39337 0.368364,-3.8078c0.0950388,-0.707214 0.214121,-1.76305 0.387187,-3.02664c0.173066,-1.26359 0.434138,-3.03662 0.692263,-5.05438c0.0510354,-0.452499 0.217069,-1.51831 0.360196,-2.92276l3.84999,-0.81834c0.563413,-0.119757 0.896155,-0.632135 0.776398,-1.19555c-0.109777,-0.516462 -0.632135,-0.896155 -1.19555,-0.776398l-3.14572,0.668644c0.0170118,-0.150833 0.0440034,-0.254715 0.0610152,-0.405548c0.333204,-2.81888 0.68342,-5.78859 0.798418,-6.4019c0.078027,-0.556381 -0.323437,-1.05992 -0.879818,-1.13794c-0.556381,-0.078027 -1.05992,0.323437 -1.13794,0.879818c-0.105019,0.660263 -0.455234,3.62997 -0.798418,6.4019c-0.0709949,0.358597 -0.085059,0.754165 -0.156054,1.11276l-3.61523,0.768442c-0.563413,0.119757 -0.886175,0.679086 -0.776398,1.19555c0.119757,0.563413 0.632135,0.896155 1.19555,0.776398l2.95792,-0.628725c-0.146074,1.15971 -0.268105,1.97081 -0.265157,2.21554c-0.271052,1.72607 -0.495153,3.44217 -0.702243,5.00743c-0.217069,1.51831 -0.373123,2.63107 -0.414179,3.13052c-0.190078,1.41443 -0.296233,2.76195 -0.338425,3.94865c-0.0791636,1.24364 -0.0573929,2.26953 0.102283,3.02074l0.0299393,0.140853c0.269454,1.26768 0.854637,2.17381 1.60472,2.70139c0.760061,0.574529 1.72199,0.713572 2.66101,0.513976l0.0469511,-0.00997976c0.610364,-0.129737 1.29467,-0.373335 1.90209,-0.747808c0.570445,-0.317541 1.12093,-0.728985 1.60451,-1.22435c0.910219,-1.0277 1.66666,-2.31715 2.33328,-4.02916c0.639629,-1.60813 1.19942,-3.59186 1.7363,-5.91424c0.124978,-0.566361 -0.229535,-1.07987 -0.748944,-1.21483Z" style="fill:#fff;fill-rule:nonzero;"/><path d="M253.919,29.6672c-0.566361,-0.124978 -1.07987,0.229535 -1.20485,0.795895l-0.0170118,0.150833c-0.810883,3.80371 -1.98672,9.35346 -4.89769,9.9722c-0.563413,0.119757 -0.93199,0.00181112 -1.17967,-0.239976c-0.314594,-0.32571 -0.528253,-0.869163 -0.64801,-1.43258l-0.0199595,-0.0939022c-0.129737,-0.610364 -0.121568,-1.4954 -0.0594165,-2.58821c0.0152007,-1.08282 0.131336,-2.38339 0.321413,-3.79782c0.143126,-1.40445 0.44117,-3.2344 0.682283,-5.10133c0.400115,-2.73495 0.783217,-5.31907 1.01027,-6.79043c0.0880067,-0.50943 -0.276486,-1.0699 -0.832867,-1.14792c-0.556381,-0.078027 -1.05992,0.323437 -1.14792,0.832867c-0.105019,0.660263 -0.237029,1.42441 -0.349079,2.28245c-0.267642,-0.33569 -0.515325,-0.577477 -0.809959,-0.809285c-1.04471,-0.759386 -2.30128,-1.13024 -3.58892,-0.954684c-0.140853,0.0299393 -0.281707,0.0598786 -0.42256,0.0898179c-2.66623,0.615797 -4.40388,3.29155 -5.53231,6.52481c-1.47228,4.38595 -1.77306,9.89691 -1.26115,12.5362c0.272401,1.51241 0.78659,2.77715 1.6435,3.57645c0.819939,0.856236 1.87872,1.22005 3.25028,0.977592c2.40449,-0.462017 4.02714,-2.52445 5.13447,-5.16437l0.00997976,0.0469511c0.199595,0.939022 0.577015,1.79117 1.2062,2.44259c0.733069,0.678411 1.69795,1.06219 2.96562,0.792735l0.0469511,-0.00997976c4.2256,-0.898179 5.53345,-7.21207 6.47929,-11.5352l0.0170118,-0.150833c0.124978,-0.566361 -0.229535,-1.07987 -0.795895,-1.20485ZM238.483,42.4682c-0.620344,0.0827858 -1.0928,-0.0621518 -1.46433,-0.424833c-0.505346,-0.530526 -0.835814,-1.39266 -1.07533,-2.51948c-0.462017,-2.40449 -0.165322,-7.47293 1.18901,-11.4903c0.909544,-2.64695 2.22055,-4.79036 4.04167,-5.22652c0.0939022,-0.0199595 0.187804,-0.039919 0.291686,-0.0129275c0.714246,-0.102745 1.44142,0.0861956 2.07764,0.539831c0.636219,0.453636 1.10754,1.28583 1.38403,2.35572c0.0199595,0.0939022 0.039919,0.187804 0.0229072,0.338637c-0.168981,0.821076 -0.298044,1.82996 -0.511029,2.90575c-0.860108,5.1882 -2.13326,12.8197 -5.95625,13.5341Z" style="fill:#fff;fill-rule:nonzero;"/><path d="M271.197,25.9947c-0.566361,-0.124978 -1.07987,0.229535 -1.20485,0.795895l-0.0170118,0.150833c-0.810883,3.80371 -1.93977,9.34348 -4.89769,9.9722c-0.563413,0.119757 -0.885039,-0.00816864 -1.13272,-0.249956c-0.361545,-0.31573 -0.575204,-0.859184 -0.694961,-1.4226l-0.0199595,-0.0939022c-0.0827858,-0.620344 -0.121568,-1.4954 -0.0594165,-2.58821c0.0152007,-1.08282 0.178287,-2.39337 0.321413,-3.79782c0.136094,-1.20666 0.248145,-2.06471 0.333204,-2.81888c0.0991231,-1.14973 0.184182,-1.9039 0.438223,-3.47914l-0.00997976,-0.0469511c0.078027,-0.556381 -0.286465,-1.11685 -0.842846,-1.19487c-0.556381,-0.078027 -1.20666,-0.136094 -1.9039,-0.184182c-1.46138,-0.180098 -3.16749,-0.357248 -4.62184,-0.73513c0.0680472,-0.603332 0.136094,-1.20666 0.17715,-1.70611c0.0410556,-0.49945 0.0351602,-0.988921 -0.0646374,-1.45843c-0.139717,-0.657315 -0.353376,-1.20077 -0.74486,-1.65735c-0.448415,-0.493555 -1.01772,-0.863268 -1.76191,-0.901376l-0.0569308,-0.0369713c-0.244735,0.00294772 -0.536421,0.0158752 -0.818128,0.0757538c-0.751217,0.159676 -1.34865,0.581099 -1.76532,1.16039c0,0 -0.0469511,0.00997976 -0.0369713,0.0569308c-0.369713,0.569308 -0.568634,1.24953 -0.51284,1.97376c0.231346,2.01186 1.55368,3.15389 3.3326,3.90443c-0.0880067,0.50943 -0.176013,1.01886 -0.26402,1.52829l-2.01961,8.96787c-0.124978,0.566361 0.229535,1.07987 0.748944,1.21483c0.566361,0.124978 1.08985,-0.182583 1.21483,-0.748944l2.05658,-9.0248l-0.00997976,-0.0469511c0.0709949,-0.358597 0.168981,-0.821076 0.220017,-1.27357c1.60518,0.394894 3.25436,0.535072 4.71574,0.71517l0.801116,0.0750792c-0.166034,1.06581 -0.224101,1.71609 -0.326172,2.62109c-0.0580674,0.650283 -0.133147,1.4514 -0.286253,2.8089c-0.190078,1.41443 -0.296233,2.76195 -0.338425,3.94865c-0.0791636,1.24364 -0.0573929,2.26953 0.102283,3.02074l0.0299393,0.140853c0.199595,0.939022 0.577015,1.79117 1.2062,2.44259c0.733069,0.678411 1.69795,1.06219 2.96562,0.792735l0.0469511,-0.00997976c4.2256,-0.898179 5.5804,-7.22205 6.47929,-11.5352l0.0170118,-0.150833c0.124978,-0.566361 -0.229535,-1.07987 -0.795895,-1.20485ZM255.054,18.3847c-0.0610152,0.405548 -0.0750792,0.801116 -0.136094,1.20666c-0.880954,-0.450688 -1.51014,-1.10211 -1.59587,-1.96719c-0.00294772,-0.244735 0.0410556,-0.49945 0.15197,-0.670243l0.0469511,-0.00997976c0.110914,-0.170793 0.278759,-0.304614 0.513514,-0.354513c0.0939022,-0.0199595 0.150833,0.0170118 0.244735,-0.00294772l0.0469511,-0.00997976c0.150833,0.0170118 0.264695,0.0909544 0.388536,0.211848c0.133821,0.167845 0.240651,0.439572 0.300529,0.721278c0.0598786,0.281707 0.072806,0.573393 0.0387824,0.875059Z" style="fill:#fff;fill-rule:nonzero;"/><path d="M273.883,11.389c0.892071,-0.189615 1.44664,-1.04358 1.25703,-1.93565c-0.189615,-0.892071 -1.04358,-1.44664 -1.93565,-1.25703c-0.892071,0.189615 -1.49359,1.05356 -1.30398,1.94563c0.189615,0.892071 1.09053,1.43666 1.9826,1.24705ZM279.836,24.1584c-0.51941,-0.134958 -1.07987,0.229535 -1.20485,0.795895c-0.418938,1.9538 -0.915902,4.46398 -1.7574,6.50759c-0.787514,1.83585 -1.79572,3.32603 -3.20425,3.62543l-0.0469511,0.00997976c-0.516462,0.109777 -0.885039,-0.00816864 -1.13272,-0.249956c-0.314594,-0.32571 -0.528253,-0.869163 -0.64801,-1.43258l-0.0199595,-0.0939022c-0.129737,-0.610364 -0.121568,-1.4954 -0.106368,-2.57823c0.0621518,-1.0928 0.178287,-2.39337 0.368364,-3.8078c0.0950388,-0.707214 0.214121,-1.76305 0.387187,-3.02664c0.173066,-1.26359 0.397167,-2.97969 0.692263,-5.05438l0.173066,-1.26359l0.282169,-2.36638c0.078027,-0.556381 -0.323437,-1.05992 -0.869838,-1.09099c-0.556381,-0.078027 -1.05992,0.323437 -1.09099,0.869838l-0.339099,2.32941c-0.0680472,0.603332 -0.129062,1.00888 -0.126115,1.25362c-0.281032,1.67912 -0.495153,3.44217 -0.702243,5.00743c-0.217069,1.51831 -0.373123,2.63107 -0.414179,3.13052c-0.190078,1.41443 -0.296233,2.76195 -0.338425,3.94865c-0.0791636,1.24364 -0.0573929,2.26953 0.102283,3.02074l0.0299393,0.140853c0.199595,0.939022 0.577015,1.79117 1.2062,2.44259c0.733069,0.678411 1.69795,1.06219 2.96562,0.792735l0.0469511,-0.00997976c2.2067,-0.469049 3.65153,-2.44462 4.65792,-4.86679c0.90546,-2.20443 1.4394,-4.77154 1.88533,-6.82922c0.124978,-0.566361 -0.239514,-1.12683 -0.795895,-1.20485Z" style="fill:#fff;fill-rule:nonzero;"/><path d="M298.757,20.1365c-0.566361,-0.124978 -1.07987,0.229535 -1.20485,0.795895l-0.0170118,0.150833c-0.810883,3.80371 -1.98672,9.35346 -4.89769,9.9722c-0.563413,0.119757 -0.93199,0.00181112 -1.17967,-0.239976c-0.314594,-0.32571 -0.528253,-0.869163 -0.64801,-1.43258l-0.0199595,-0.0939022c-0.129737,-0.610364 -0.121568,-1.4954 -0.0594165,-2.58821c0.0152007,-1.08282 0.131336,-2.38339 0.321413,-3.79782c0.143126,-1.40445 0.44117,-3.2344 0.682283,-5.10133c0.400115,-2.73495 0.783217,-5.31907 1.01027,-6.79043c0.0880067,-0.50943 -0.276486,-1.0699 -0.832867,-1.14792c-0.556381,-0.078027 -1.05992,0.323437 -1.14792,0.832867c-0.105019,0.660263 -0.237029,1.42441 -0.349079,2.28245c-0.267642,-0.33569 -0.515325,-0.577477 -0.809959,-0.809285c-1.04471,-0.759386 -2.30128,-1.13024 -3.58892,-0.954684c-0.140853,0.0299393 -0.281707,0.0598786 -0.42256,0.0898179c-2.66623,0.615797 -4.40388,3.29155 -5.53231,6.52481c-1.47228,4.38595 -1.77306,9.89691 -1.26115,12.5362c0.272401,1.51241 0.78659,2.77715 1.6435,3.57645c0.819939,0.856236 1.87872,1.22005 3.25028,0.977592c2.40449,-0.462017 4.02714,-2.52445 5.13447,-5.16437l0.00997976,0.0469511c0.199595,0.939022 0.577015,1.79117 1.2062,2.44259c0.733069,0.678411 1.69795,1.06219 2.96562,0.792735l0.0469511,-0.00997976c4.2256,-0.898179 5.53345,-7.21207 6.47929,-11.5352l0.0170118,-0.150833c0.124978,-0.566361 -0.229535,-1.07987 -0.795895,-1.20485ZM283.321,32.9376c-0.620344,0.0827858 -1.0928,-0.0621518 -1.46433,-0.424833c-0.505346,-0.530526 -0.835814,-1.39266 -1.07533,-2.51948c-0.462017,-2.40449 -0.165322,-7.47293 1.18901,-11.4903c0.909544,-2.64695 2.22055,-4.79036 4.04167,-5.22652c0.0939022,-0.0199595 0.187804,-0.039919 0.291686,-0.0129275c0.714246,-0.102745 1.44142,0.0861956 2.07764,0.539831c0.636219,0.453636 1.10754,1.28583 1.38403,2.35572c0.0199595,0.0939022 0.039919,0.187804 0.0229072,0.338637c-0.168981,0.821076 -0.298044,1.82996 -0.511029,2.90575c-0.860108,5.1882 -2.13326,12.8197 -5.95625,13.5341Z" style="fill:#fff;fill-rule:nonzero;"/><path d="M317.491,16.1546c-0.566361,-0.124978 -1.07987,0.229535 -1.20485,0.795895l-0.0170118,0.150833c-0.810883,3.80371 -1.98672,9.35346 -4.89769,9.9722l-0.0469511,0.00997976c-0.516462,0.109777 -0.885039,-0.00816864 -1.13272,-0.249956c-0.314594,-0.32571 -0.528253,-0.869163 -0.64801,-1.43258l-0.0199595,-0.0939022c-0.169656,-0.798168 -0.181447,-1.77711 -0.109315,-2.82296c0.0621518,-1.0928 0.245197,-2.30945 0.391271,-3.46916c0.0440034,-0.254715 0.0680472,-0.603332 0.139042,-0.961929c0.305076,-2.02774 0.786165,-5.07434 0.297157,-7.37494c-0.528927,-2.48841 -1.97102,-4.19385 -5.3515,-3.4753c-1.54939,0.329332 -2.81525,1.53078 -3.87744,3.22872c0.0709949,-0.358597 0.105019,-0.660263 0.176013,-1.01886c0.078027,-0.556381 -0.323437,-1.05992 -0.879818,-1.13794c-0.556381,-0.078027 -1.05992,0.323437 -1.13794,0.879818c-0.536209,3.94162 -1.08943,8.03407 -1.5746,11.5232c0.00997976,0.0469511 -0.0269916,0.103882 -0.0170118,0.150833c0.00997976,0.0469511 -0.0369713,0.0569308 -0.0269916,0.103882c0.00997976,0.0469511 0.0199595,0.0939022 0.0199595,0.0939022c-0.658239,4.75271 -1.16451,8.83519 -1.32056,9.94795c-0.078027,0.556381 0.323437,1.05992 0.879818,1.13794c0.546401,0.0310759 1.05992,-0.323437 1.12796,-0.926769c0.156054,-1.11276 0.699295,-5.25216 1.31058,-9.9949c0.410094,-2.688 1.3108,-6.06916 2.62589,-8.65509c0.901376,-1.76191 1.93952,-3.11124 3.1133,-3.36073c1.83109,-0.389211 2.67099,0.560927 2.9604,1.92251c0.41915,1.97195 -0.0179359,4.76383 -0.306,6.64074c-0.0709949,0.358597 -0.105019,0.660263 -0.139042,0.961929c-0.173066,1.26359 -0.356111,2.48024 -0.398303,3.66694c-0.0891433,1.19668 -0.0943642,2.32646 0.115211,3.31243l0.0299393,0.140853c0.199595,0.939022 0.577015,1.79117 1.2062,2.44259c0.733069,0.678411 1.69795,1.06219 2.96562,0.792735l0.0469511,-0.00997976c4.2256,-0.898179 5.53345,-7.21207 6.43234,-11.5252l0.0639629,-0.160813c0.124978,-0.566361 -0.229535,-1.07987 -0.795895,-1.20485Z" style="fill:#fff;fill-rule:nonzero;"/></g><path id="y1" d="M277.197,78.6263c2.75544,-1.96981 4.32793,-3.47991 4.71753,-4.53035c0.400302,-0.293944 1.09868,-1.5368 2.09516,-3.72861c0.701247,-2.8368 0.808606,-5.05085 0.322078,-6.64221l-0.0916509,-0.780757c-0.925087,-3.02582 -2.22419,-5.03045 -3.89735,-6.01393c-1.21304,-1.00161 -2.88988,-1.8369 -5.03059,-2.50588c-3.02853,-0.446562 -4.78061,-0.646142 -5.25629,-0.598746c-1.57523,0.138475 -2.96798,0.392727 -4.17831,0.762762c-2.09188,0.933654 -3.62026,1.86658 -4.58518,2.79881c-0.73208,0.812024 -1.49213,1.85316 -2.28017,3.12345c-0.751212,1.87174 -0.931519,3.44637 -0.540926,4.72394l0.179448,0.82744c0.5482,1.79308 1.70026,3.15643 3.45622,4.09009c1.40348,0.502236 2.49745,0.633433 3.28192,0.393596c0.02741,0.089654 0.265246,0.0659566 0.713517,-0.0710935l0.874122,-0.267246c0.560338,-0.171313 1.15921,-0.697521 1.79664,-1.57864c0.457409,-1.38978 0.648422,-2.20793 0.573044,-2.45448c-0.0498239,-0.0828014 -0.909661,-0.0895126 -2.57954,-0.0201333c-1.698,-0.583753 -2.6669,-1.26786 -2.90674,-2.05233l-0.211142,-0.450124c-0.8223,-2.68962 -0.455262,-4.61544 1.10112,-5.77751c1.16665,-0.993901 2.44477,-1.70327 3.8344,-2.12812c2.46491,-0.434989 3.97288,-0.552905 4.52394,-0.353753c2.36541,0.281672 3.80185,0.651277 4.30936,1.10883c1.73911,0.718234 3.24294,1.94953 4.51151,3.69393c0.264678,0.384742 0.777895,1.50226 1.53966,3.35259c0.291659,1.67544 0.331059,2.76627 0.1182,3.2725c-0.688685,3.5192 -2.21179,6.31314 -4.56935,8.38188c-1.60549,1.64275 -2.89104,2.64848 -3.85668,3.01723c-0.424572,0.37489 -1.79049,1.03757 -4.0978,1.98807c-5.11028,1.56237 -10.0564,1.01588 -14.8387,-1.63948c-0.979484,-0.55834 -2.04118,-1.38563 -3.18512,-2.48189c-0.945933,-1.00975 -1.90998,-2.4796 -2.89218,-4.40959c-0.555052,-1.81549 -0.755198,-3.59241 -0.600441,-5.33082c0.152187,-2.22779 0.676687,-4.52035 1.57352,-6.87776c0.271961,-0.793894 1.12595,-2.32941 2.56199,-4.60659c3.12876,-3.55446 5.74653,-5.65373 7.8534,-6.29786c0.331206,-0.199294 1.4176,-0.653979 3.25922,-1.36407c2.06204,-0.63043 4.48895,-1.02929 7.28078,-1.19661c4.16106,0.222857 7.93732,0.710385 11.3289,1.4626c1.60207,0.269964 6.00789,1.37378 13.2176,3.31149c3.16373,0.968925 8.13359,1.75325 14.9097,2.353c3.13118,-0.0994991 5.58549,-0.408711 7.36301,-0.927645l3.15472,-0.743919c3.12476,-1.32296 5.46001,-2.50258 7.00583,-3.53888c0.291376,-0.0890824 1.45986,-1.15706 3.50549,-3.20397c1.4249,-1.83262 2.26832,-3.24237 2.53029,-4.22927c1.34196,-2.66506 1.84262,-6.07771 1.502,-10.2381c-0.022555,-0.875411 -0.0749469,-1.44759 -0.157177,-1.71655l-0.740066,-2.42065c-1.1772,-2.72817 -1.87786,-4.05797 -2.102,-3.98944c-0.694388,-0.988622 -1.66272,-1.99151 -2.90503,-3.00868c-0.703669,-0.618157 -2.06359,-1.37878 -4.0798,-2.28189c-1.54981,-0.580041 -7.73092,-1.51123 -9.33669,-1.63301c-0.041115,-0.134481 -1.24803,1.2087 0.560184,1.83228c0.601452,-0.0368313 7.22569,0.740517 9.33156,1.61622c1.81949,1.06129 3.1066,2.06474 3.86138,3.01039c1.44474,1.51898 2.37952,2.97327 2.80438,4.3629c0.0448268,-0.0137049 0.171882,0.241548 0.381169,0.765767c0.63043,2.06204 0.937073,4.02698 0.919938,5.89486c-0.132914,2.05033 -0.519224,4.1536 -1.15894,6.30986c-0.816597,1.8182 -1.59963,3.18498 -2.34913,4.10036c-0.293803,0.481961 -1.24501,1.459 -2.85364,2.93115c-1.43932,1.22432 -3.20925,2.32913 -5.30984,3.31446l-1.43817,0.586743l-1.81549,0.55505c-3.60857,1.10325 -7.31374,1.32923 -11.1156,0.677951c-4.82732,-0.558347 -9.24057,-1.3658 -13.2399,-2.42238c-6.46936,-1.60036 -11.3216,-2.64123 -14.5568,-3.12262c-1.5224,-0.490387 -4.8958,-0.782477 -10.1203,-0.87628c-2.549,0.24012 -4.66397,0.617143 -6.34499,1.13108c-2.08446,0.637282 -4.70737,1.75779 -7.86882,3.36157c-2.15098,1.22132 -4.48238,3.135 -6.99427,5.7411c-2.38226,3.35074 -3.67994,6.32084 -3.89309,8.91038c-0.341629,1.20733 -0.418579,2.79938 -0.230851,4.77619c-0.134481,0.0411151 0.157744,1.39775 0.876684,4.06996c0.424855,1.38964 1.0894,2.68146 1.99364,3.87552c1.60106,1.7898 2.86391,2.8742 3.78857,3.25323c0.967062,0.758206 2.54241,1.50198 4.72608,2.23135c1.98752,0.568763 3.64124,0.847432 4.96121,0.836013c2.82924,0.115355 5.90241,-0.334044 9.21961,-1.34821c2.9523,-1.24573 4.88226,-2.22791 5.78994,-2.94656Z" style="fill:#fff;stroke-width:0.5px;stroke:#fff;"/></g></g></svg>