<?xml version="1.0" encoding="UTF-8" standalone="no"?>
<svg width="337px" height="96px" viewBox="0 0 337 96" version="1.1" xmlns="http://www.w3.org/2000/svg" xmlns:xlink="http://www.w3.org/1999/xlink" xmlns:sketch="http://www.bohemiancoding.com/sketch/ns">
    <!-- Generator: Sketch 3.3.2 (12043) - http://www.bohemiancoding.com/sketch -->
    <title>logo</title>
    <desc>Created with Sketch.</desc>
    <defs></defs>
    <g id="Page-1" stroke="none" stroke-width="1" fill="none" fill-rule="evenodd" sketch:type="MSPage">
        <g id="Artboard-1" sketch:type="MSArtboardGroup" transform="translate(-12.000000, -11.000000)" fill="#FFEE7A">
            <g id="logo" sketch:type="MSLayerGroup" transform="translate(185.684405, 61.481334) rotate(6.000000) translate(-185.684405, -61.481334) translate(12.184405, -6.518666)">
                <g id="Manly" transform="translate(1.000000, 28.000000)">
                    <g id="anly-+-M" transform="translate(9.859683, 32.133598)">
                        <text id="anly" sketch:type="MSTextLayer" transform="translate(89.274363, 33.048168) rotate(-18.000000) translate(-89.274363, -33.048168) " font-family="Nickainley" font-size="48" font-weight="normal">
                            <tspan x="55.7743628" y="41.0481679">anly</tspan>
                        </text>
                        <path d="M52.6192872,24.1227779 C51.8992872,23.8827779 51.0352872,23.7387779 50.0752872,23.7867779 C48.1072872,23.7867779 46.1872872,24.6987779 44.3152872,26.1867779 C43.2112872,27.0987779 42.1072872,28.2507779 41.0512872,29.5467779 C41.0512872,28.0587779 40.7152872,26.8107779 40.1872872,25.8987779 C39.5152872,24.6987779 38.5552872,23.9787779 37.3552872,23.6427779 C36.9712872,23.4987779 36.5392872,23.4507779 36.1072872,23.4027779 C34.3792872,23.3547779 32.8432872,23.8827779 30.9712872,25.4667779 C29.4352872,26.7147779 27.6592872,28.6827779 25.3552872,31.6107779 L28.0432872,23.3547779 C28.1392872,23.0667779 28.0912872,22.7307779 27.9472872,22.4427779 C27.6112872,22.0107779 26.9872872,21.8667779 26.5072872,22.2027779 C25.8352872,22.6827779 24.9712872,23.2587779 24.1072872,23.8827779 C20.3152872,26.6667779 15.5632872,30.0747779 11.3392872,30.3627779 C10.8592872,30.4107779 10.3792872,30.4107779 9.94728718,30.3627779 C8.60328718,30.2187779 4.18728718,29.3067779 5.33928718,30.4107779 C6.44328718,31.4667779 7.93128718,32.1867779 9.70728718,32.3787779 C10.2832872,32.4267779 10.8592872,32.4267779 11.4832872,32.4267779 C16.2352872,32.0427779 21.1792872,28.5387779 25.1632872,25.6587779 L21.4192872,37.0827779 C20.4592872,38.5227779 19.5952872,39.9147779 18.8272872,41.1147779 C18.0592872,42.3627779 17.3872872,43.4187779 16.9072872,44.0907779 C16.9072872,44.0907779 16.7632872,44.2827779 16.5712872,44.5707779 C15.0352872,46.5387779 10.1872872,52.9707779 10.0912872,56.4747779 L10.0912872,56.6187779 C10.0432872,57.4827779 10.3312872,58.1547779 10.7632872,58.6347779 C11.1952872,59.1627779 11.8192872,59.4507779 12.5392872,59.4987779 C16.5232872,59.4987779 18.2032872,53.8347779 19.2592872,50.3307779 C19.4032872,49.8027779 19.5472872,49.3707779 19.6432872,48.9867779 L23.2432872,37.9947779 C24.1072872,36.7467779 24.9712872,35.4987779 25.8832872,34.2507779 C28.6672872,30.6507779 30.6352872,28.3467779 32.2672872,27.0027779 C33.7072872,25.8027779 34.8112872,25.3707779 36.0112872,25.4187779 C36.2992872,25.4667779 36.5392872,25.5147779 36.7792872,25.5627779 C37.4512872,25.7547779 38.0272872,26.1867779 38.4112872,26.9067779 C38.8432872,27.6747779 39.0832872,28.7307779 39.0352872,30.1707779 C38.9872872,31.2747779 38.7472872,32.5227779 38.3152872,34.0107779 C37.0192872,38.3307779 35.9152872,41.8347779 34.7152872,45.5307779 C33.4672872,49.2747779 32.2192872,52.9707779 30.5392872,57.7227779 C30.3952872,58.2507779 30.6352872,58.8267779 31.1632872,59.0187779 C31.6912872,59.2107779 32.2672872,58.9227779 32.4592872,58.3947779 C34.1872872,53.4507779 35.4832872,49.6587779 36.6832872,46.1547779 C37.8352872,42.5547779 38.9392872,39.0027779 40.2832872,34.5867779 C40.3792872,34.2027779 40.4752872,33.8667779 40.5712872,33.4827779 C42.0592872,31.1787779 43.7872872,29.1147779 45.5152872,27.6747779 C47.0512872,26.4267779 48.5872872,25.6587779 50.0752872,25.6587779 C50.7952872,25.6587779 51.4672872,25.7547779 51.9952872,25.9467779 C52.8112872,26.2347779 53.3872872,26.7627779 53.7712872,27.4347779 C54.2032872,28.1547779 54.3952872,29.1147779 54.3952872,30.2187779 C54.3952872,31.9947779 53.9632872,34.1547779 53.1472872,36.4107779 C52.5712872,38.1387779 51.8032872,40.2507779 50.9872872,42.5067779 C48.4432872,49.5147779 45.3232872,58.0587779 44.5072872,62.4747779 C44.4592872,62.9067779 44.4112872,63.3387779 44.4112872,63.7227779 C44.4112872,64.9227779 44.7472872,66.0747779 45.4192872,67.0347779 C46.1392872,67.9947779 47.1952872,68.6667779 48.5872872,68.9067779 C48.9232872,69.0027779 49.3072872,69.0027779 49.6912872,69.0027779 C50.2192872,69.0027779 50.6512872,68.5707779 50.6512872,68.0427779 C50.6512872,67.5147779 50.2192872,67.1307779 49.6912872,67.1307779 C49.4032872,67.1307779 49.1152872,67.0827779 48.9232872,67.0347779 C48.0592872,66.8907779 47.3872872,66.4587779 47.0032872,65.8827779 C46.5232872,65.3067779 46.3312872,64.5387779 46.3312872,63.7227779 C46.3312872,63.3867779 46.3312872,63.0987779 46.4272872,62.8107779 C47.1472872,58.5867779 50.2192872,50.1387779 52.7632872,43.1787779 C53.5792872,40.9227779 54.2992872,38.8587779 54.9232872,37.0827779 C55.7872872,34.5867779 56.3152872,32.2347779 56.2672872,30.2187779 C56.2672872,28.7787779 56.0272872,27.5307779 55.4512872,26.4747779 C54.8272872,25.4187779 53.9152872,24.6027779 52.6192872,24.1227779 Z M17.7232872,48.3627779 C17.6272872,48.7467779 17.4832872,49.2267779 17.3392872,49.7547779 C16.4272872,52.6827779 15.0352872,57.4347779 12.6352872,57.4347779 L12.5872872,57.4347779 C12.4432872,57.4347779 12.3472872,57.3867779 12.2512872,57.3387779 C12.1552872,57.1947779 12.1072872,56.9547779 12.1072872,56.6667779 L12.1072872,56.5707779 C12.1552872,53.7387779 16.7632872,47.6427779 18.1552872,45.7707779 C18.3472872,45.5307779 18.4912872,45.3867779 18.5872872,45.2427779 C18.6832872,45.0507779 18.8272872,44.9067779 18.9232872,44.7147779 L17.7232872,48.3627779 Z" id="M" sketch:type="MSShapeGroup" transform="translate(30.709944, 45.509957) rotate(-12.000000) translate(-30.709944, -45.509957) "></path>
                    </g>
                    <path d="M59.1670998,5.4966144 C56.4464621,7.51421655 54.9005641,9.05153206 54.5293592,10.108607 C54.1342476,10.409493 53.4576659,11.6643505 52.4995939,13.8732171 C51.8479626,16.7218283 51.779261,18.9374133 52.2934872,20.5200387 L52.3987502,21.299077 C53.3765042,24.3082943 54.7103951,26.28994 56.4004629,27.2440736 C57.6307982,28.2243645 59.321966,29.0302578 61.474017,29.6617776 C64.5098826,30.0554161 66.2651794,30.2243876 66.7399598,30.1686971 C68.3125294,30.0027511 69.7006369,29.7242314 70.9043238,29.3331298 C72.9795907,28.3631095 74.4914551,27.4036504 75.4399623,26.4547237 C76.1577593,25.6300469 76.8995236,24.5758009 77.6652774,23.2919541 C78.3837087,21.4073891 78.5365073,19.829851 78.1236778,18.5592926 L77.9298159,17.7351109 C77.3504061,15.951871 76.1747253,14.6088349 74.402738,13.7059624 C72.990703,13.2282971 71.8946182,13.1162121 71.1144507,13.3697039 C71.0854802,13.2805419 70.8480936,13.3083867 70.4022836,13.4532391 L69.5329585,13.7357 C68.975696,13.9167655 68.3860961,14.4533457 67.7641411,15.3454567 C67.3310569,16.7430065 67.1543518,17.5643668 67.2340207,17.8095623 C67.2852817,17.8914817 68.1451051,17.8831855 69.8135167,17.7846736 C71.5214456,18.3387035 72.5021412,19.0057921 72.755633,19.7859596 L72.9745984,20.2323299 C73.8437131,22.9071898 73.5103426,24.8391199 71.9744772,26.0281784 C70.8253554,27.0422887 69.5598081,27.7738541 68.1777972,28.2228967 C65.7208502,28.7008382 64.2151747,28.8450542 63.6607254,28.6555492 C61.2907615,28.4152026 59.8480897,28.0707229 59.3326667,27.6220997 C57.5812821,26.9343269 56.0562011,25.7294612 54.757378,24.0074665 C54.4860252,23.6274027 53.9533834,22.5190118 53.1594365,20.6822604 C52.8385822,19.0121609 52.7801511,17.9221933 52.9841414,17.412325 C53.6113033,13.8816389 55.0854104,11.0615495 57.4065071,8.95197223 C58.9830867,7.28145331 60.2508845,6.25343583 61.2099386,5.86788897 C61.6279034,5.4856463 62.9820487,4.7992238 65.2724154,3.80860088 C70.354649,2.15728306 75.3096022,2.61736674 80.1374234,5.18886573 C81.1265017,5.73002666 82.2024752,6.53866143 83.3653764,7.61479432 C84.3287883,8.60788257 85.3183427,10.0606816 86.3340693,11.973235 C86.9207217,13.7787654 87.1518479,15.5519229 87.0274548,17.2927607 C86.9141712,19.5228642 86.4297617,21.8242342 85.5742117,24.1969396 C85.3161472,24.9954592 84.489089,26.5456434 83.0930123,28.8475389 C80.0267645,32.4560628 77.4460259,34.6006957 75.350719,35.2815022 C75.0230415,35.4865462 73.9447459,35.9601226 72.1157997,36.7022459 C70.0650739,37.3685671 67.6455016,37.8097262 64.8570104,38.0257364 C60.6926972,37.8755339 56.9085045,37.4539848 53.5043187,36.7610767 C51.8977865,36.5191138 47.473368,35.4923546 40.2309302,33.6807683 C37.0507748,32.7672057 32.0679768,32.0697353 25.2823869,31.5883363 C22.1534208,31.7424671 19.7048785,32.0944655 17.9366865,32.6443422 L14.7954298,33.4432055 C11.6942373,34.8205006 9.37992702,36.0406902 7.85242944,37.1038109 C7.56265296,37.197965 6.41298583,38.2861731 4.40339357,40.3684678 C3.01069264,42.2256786 2.19200223,43.649927 1.94729778,44.6412558 C0.652055129,47.3293324 0.211029065,50.7502025 0.624206351,54.9039689 C0.662035758,55.7788531 0.724405258,56.3500296 0.811316722,56.6175156 L1.59351599,59.0248774 C2.81815334,61.7320835 3.54191366,63.0494537 3.76481864,62.9770275 C4.4763551,63.9533799 5.46204274,64.9392108 6.72191114,65.9345496 C7.43626076,66.5403315 8.80924895,67.2771037 10.8409169,68.1448885 C12.4006176,68.6977931 13.9842729,69.0211079 15.5919303,69.1148425 C15.6353861,69.2485855 16.155388,68.1185296 14.3365693,67.5265987 C13.7358511,67.5739213 12.3750974,67.1781814 10.2542675,66.3393671 C8.416534,65.3099942 7.11210417,64.3291553 6.34093884,63.3968212 C4.86990914,61.9032862 3.9098874,60.4655348 3.46084484,59.0835239 C3.41626384,59.0980092 3.28477335,58.8450122 3.06636943,58.3245255 C2.4000482,56.2737996 2.05915905,54.3145157 2.04369174,52.4466149 C2.14080219,50.3942727 2.4903455,48.2845838 3.09233216,46.117485 C3.87707227,44.2853062 4.6361347,42.9050755 5.36954223,41.9767514 C5.65488925,41.4897363 6.58889725,40.4962435 8.17159424,38.9962433 C9.58932723,37.7469933 11.3397035,36.6114634 13.4227757,35.5896195 L14.8504857,34.9778665 L16.6560071,34.391217 C20.2447774,33.2251549 23.9454356,32.9345439 27.758093,33.5193753 C32.5944253,33.9933885 37.0210944,34.7236957 41.038233,35.7103188 C47.5345375,37.1975318 52.4041967,38.1535537 55.6473569,38.5784133 C57.1780871,39.0421559 60.5560648,39.275328 65.7813914,39.2779365 C68.3258124,38.9933669 70.433885,38.57949 72.1056724,38.0362933 C74.1786888,37.3627295 76.781646,36.1966132 79.9146221,34.5379096 C82.0439631,33.2792381 84.3416095,31.3251609 86.8076302,28.6756196 C89.1310489,25.2838117 90.3766998,22.2915183 90.5446201,19.6986494 C90.8651266,18.485541 90.9142795,16.8923927 90.6920804,14.9191567 C90.8258234,14.875701 90.5099659,13.5243687 89.7444985,10.8651194 C89.2954559,9.48310849 88.6084708,8.20307612 87.6835225,7.02498389 C86.0514672,5.26340027 84.7698902,4.20120593 83.8387529,3.838369 C82.8586052,3.09715622 81.2705205,2.38098624 79.0744512,1.68983759 C77.0773085,1.15584769 75.4189775,0.906083289 74.0994086,0.940536902 C71.2685869,0.87457587 68.2037252,1.37754184 64.9047314,2.4494499 C61.9746203,3.74651347 60.0620955,4.76222482 59.1670998,5.4966144 L59.1670998,5.4966144 Z" id="y" stroke="#FFEE7A" stroke-width="0.5" sketch:type="MSShapeGroup"></path>
                </g>
                <g id="Vegetarian" transform="translate(130.000000, 0.000000)">
                    <text sketch:type="MSTextLayer" transform="translate(95.000000, 51.000000) rotate(-18.000000) translate(-95.000000, -51.000000) " font-family="Nickainley" font-size="48" font-weight="normal">
                        <tspan x="3" y="59">Vegetarian</tspan>
                    </text>
                    <path d="M138.29982,30.6712287 C141.510774,31.7493591 143.456067,32.7337242 144.135758,33.6243537 C144.60451,33.788417 145.63575,34.7727822 147.229508,36.5774787 C148.729515,39.0853037 149.479508,41.1712204 149.479508,42.8352912 L149.620133,43.6087287 C149.620133,46.772807 148.963889,49.069659 147.651383,50.4993537 C146.784191,51.8118602 145.42483,53.1009099 143.573258,54.3665412 C140.807619,55.6790477 139.190448,56.3821657 138.721695,56.4759162 C137.174813,56.8040428 135.768577,56.9681037 134.502945,56.9681037 C132.229496,56.6868523 130.495139,56.2415442 129.29982,55.6321662 C128.362316,55.0696634 127.331076,54.2962336 126.20607,53.3118537 C124.940439,51.7415333 124.307633,50.2884229 124.307633,48.9524787 L124.23732,48.1087287 C124.23732,46.2337193 124.940438,44.5931107 126.346695,43.1868537 C127.542014,42.2962242 128.549816,41.8509162 129.370133,41.8509162 C129.370133,41.7571657 129.604505,41.7102912 130.073258,41.7102912 L130.98732,41.7102912 C131.573261,41.7102912 132.299816,42.0384129 133.167008,42.6946662 C134.010762,43.8899847 134.432633,44.6165399 134.432633,44.8743537 C134.409195,44.9681042 133.588891,45.2259141 131.971695,45.6477912 C130.518563,46.702484 129.792008,47.6399746 129.792008,48.4602912 L129.721695,48.9524787 C129.721695,51.7649927 130.635749,53.4993504 132.463883,54.1556037 C133.87014,54.7649817 135.299813,55.0696662 136.752945,55.0696662 C139.237333,54.7649772 140.71388,54.4368554 141.182633,54.0852912 C143.362331,53.1243489 144.627943,52.3509191 144.979508,51.7649787 C146.43264,50.5696602 147.510754,48.9524889 148.213883,46.9134162 C148.354508,46.4681015 148.518569,45.2493636 148.70607,43.2571662 C148.495132,41.5696577 148.213885,40.5149808 147.86232,40.0931037 C146.174812,36.9290254 143.901397,34.7024851 141.042008,33.4134162 C139.026373,32.3118482 137.50295,31.7259165 136.471695,31.6556037 C135.956068,31.4212275 134.456083,31.1868549 131.971695,30.9524787 C126.627919,30.9524787 122.057652,32.921209 118.260758,36.8587287 C117.487316,37.6790453 116.713887,38.7805968 115.940445,40.1634162 C115.331067,41.4056099 114.838885,43.093093 114.463883,45.2259162 C114.463883,47.1243632 114.792004,48.8821581 115.448258,50.4993537 C116.245137,52.5853016 117.417,54.6243437 118.963883,56.6165412 C119.456073,57.2962321 120.721685,58.5149699 122.760758,60.2727912 C126.792028,62.7571786 129.909184,63.9993537 132.11232,63.9993537 C132.487322,64.0931042 133.659185,64.2102905 135.627945,64.3509162 C137.784206,64.3509162 140.221682,64.0227945 142.940445,63.3665412 C146.854527,61.9368465 150.323243,60.3665497 153.346695,58.6556037 C154.799828,57.9290376 158.690414,55.585311 165.01857,51.6243537 C167.760771,49.7727819 172.284164,47.569679 178.588883,45.0149787 C181.612335,44.1946621 184.049811,43.7727913 185.901383,43.7493537 L189.135758,43.5384162 C192.510775,43.8899804 195.088874,44.3352885 196.870133,44.8743537 C197.174822,44.8743537 198.604495,45.5540344 201.159195,46.9134162 C203.057642,48.2493604 204.27638,49.3509119 204.815445,50.2181037 C206.877956,52.3743645 208.354503,55.4915208 209.245133,59.5696662 C209.479509,60.4134204 209.596695,60.9759148 209.596695,61.2571662 L209.596695,63.7884162 C209.268569,66.741556 208.987321,68.2181037 208.752945,68.2181037 C208.377943,69.3665469 207.745137,70.608722 206.854508,71.9446662 C206.362318,72.7415452 205.284204,73.8665339 203.620133,75.3196662 C202.307626,76.3274837 196.668862,79.0251686 195.168854,79.6111091 C195.168854,79.7517348 193.621971,78.8201143 195.168854,77.6951087 C195.754794,77.554483 201.862311,74.874361 203.620133,73.4212287 C205.049827,71.874346 205.987318,70.5384218 206.432633,69.4134162 C207.370137,67.5384068 207.838883,65.874361 207.838883,64.4212287 C207.885758,64.4212287 207.932633,64.1399815 207.979508,63.5774787 C207.979508,61.4212179 207.698261,59.4524876 207.135758,57.6712287 C206.409192,55.7493441 205.424826,53.8509256 204.182633,51.9759162 C202.870126,50.4759087 201.7217,49.3977945 200.73732,48.7415412 C200.315443,48.3665393 199.120143,47.7102959 197.151383,46.7727912 C195.416999,46.0227874 193.401394,45.4837303 191.104508,45.1556037 L189.557633,45.0149787 L187.659195,45.0149787 C183.885739,45.0149787 180.2764,45.8821575 176.83107,47.6165412 C172.377923,49.5618634 168.393588,51.6243428 164.877945,53.8040412 C159.159167,57.2259333 154.823273,59.6399717 151.870133,61.0462287 C150.557626,61.9602958 147.417033,63.2259081 142.448258,64.8431037 C139.940433,65.3587313 137.807642,65.6165412 136.04982,65.6165412 C133.870122,65.6165412 131.034213,65.3118567 127.542008,64.7024787 C125.127933,64.1634135 122.338899,63.0149875 119.17482,61.2571662 C115.916991,58.7493411 113.807638,56.2884283 112.846695,53.8743537 C112.167004,52.8196609 111.627947,51.3196759 111.229508,49.3743537 C111.088882,49.3743537 110.971696,47.991555 110.877945,45.2259162 C110.877945,43.7727839 111.135755,42.3431107 111.651383,40.9368537 C112.6592,38.7571553 113.549816,37.3509194 114.323258,36.7181037 C115.026386,35.7102861 116.315436,34.5384229 118.190445,33.2024787 C119.924829,32.0774731 121.424814,31.3274806 122.690445,30.9524787 C125.362334,30.014974 128.432615,29.5462287 131.901383,29.5462287 C135.088899,29.8743553 137.22169,30.2493516 138.29982,30.6712287 Z" id="y" stroke="#FFEE7A" stroke-width="0.5" sketch:type="MSShapeGroup" transform="translate(160.237320, 54.585714) scale(-1, 1) rotate(-157.000000) translate(-160.237320, -54.585714) "></path>
                </g>
            </g>
        </g>
    </g>
</svg>
